<svg width="747" height="177" viewBox="0 0 747 177" fill="none" xmlns="http://www.w3.org/2000/svg">
<rect y="1.52588e-05" width="742" height="177" fill="white"/>
<path d="M98.3258 0.207897C74.0425 2.18189 51.2946 14.2765 35.7846 33.4211C30.0506 40.5025 23.972 51.1871 21.1206 59.2398C19.7106 63.2191 17.956 70.0184 17.204 74.4364C15.606 83.7424 15.8566 96.495 17.8306 105.613C18.7706 109.874 18.7706 109.749 17.2353 112.663C16.452 114.136 15.5746 116.172 15.2926 117.206C14.7913 118.93 14.6346 119.149 13.1933 120.026C10.9373 121.374 6.77 125.572 4.95267 128.33C0.660017 134.91 -0.969312 143.244 0.566017 150.733C3.04134 162.671 12.316 172.008 25.4133 175.737L27.826 176.426L102.932 176.52C176.314 176.583 178.069 176.583 181.171 175.987C193.955 173.512 203.888 164.331 207.272 151.892C208.243 148.289 208.243 141.396 207.272 137.73C206.394 134.502 204.514 130.46 202.697 127.891C201.005 125.51 197.026 121.687 194.519 120.026C192.733 118.836 188.315 116.736 187.594 116.736C187.375 116.736 187.626 115.514 188.252 113.509C189.568 109.342 190.759 104.046 191.448 99.1583C192.2 93.8317 192.2 81.0164 191.448 76.379C187.532 52.3464 175.531 32.2932 156.23 17.6292C150.026 12.8979 140.281 7.72788 132.636 5.12722C120.854 1.11656 108.634 -0.638101 98.3258 0.207897ZM110.859 19.0392C120.447 25.7758 127.936 34.1105 132.009 42.6018C135.769 50.4978 137.492 59.5218 136.74 67.6057C136.427 71.0524 135.675 74.6557 135.174 75.157C135.048 75.2824 132.98 73.841 130.568 71.9924C126.494 68.8277 122.421 65.6944 114.337 59.5531C112.52 58.1744 111.016 56.9524 111.016 56.8271C111.016 56.7018 112.739 55.1351 114.838 53.3804C120.917 48.3044 121.324 47.7404 120.698 45.4845C120.259 43.9491 119.1 43.0405 117.376 42.8838C115.998 42.7271 115.747 42.8211 114.431 43.9178C110.546 47.1451 108.948 48.5238 108.603 48.9938C108.164 49.5578 108.164 49.5578 108.039 35.8651C107.945 27.4052 107.788 26.6532 106.002 25.7132C104.436 24.8985 102.963 25.0865 101.741 26.3085L100.676 27.3738L100.613 33.7345C100.519 49.3071 100.456 50.4038 99.8924 50.0591C99.6104 49.9338 98.0438 48.5238 96.3518 46.9884C94.6911 45.4218 92.9678 43.9805 92.5605 43.7611C90.8371 42.8211 88.0485 44.3251 87.6411 46.3931C87.3278 48.0538 88.1738 49.4011 90.9938 51.8138C92.4351 53.0358 94.3778 54.7278 95.3178 55.5738L97.0098 57.0778L93.2811 59.9918C79.4005 70.8017 73.6352 75.2197 73.3532 75.2197C72.3505 75.2197 71.4105 67.9191 71.6298 61.8091C71.8178 56.3884 72.3192 53.5684 74.0425 48.3984C78.4292 35.2071 87.6098 24.5852 102.43 15.6865L104.185 14.6212L106.128 15.8432C107.162 16.5012 109.292 17.9425 110.859 19.0392ZM64.7992 45.1085C66.3345 45.3905 67.6505 45.7038 67.7445 45.7665C67.8072 45.8605 67.3685 47.5838 66.7419 49.6204C66.0839 51.6258 65.4259 54.0698 65.2379 55.0098C65.0499 55.9498 64.8619 56.9211 64.7679 57.1404C64.7052 57.3911 63.7339 56.7644 62.1359 55.4171C58.1565 52.0644 57.0285 51.2811 55.9632 51.0618C54.8039 50.8424 53.0806 51.5631 52.4539 52.5658C51.8586 53.5371 51.9526 55.6051 52.6732 56.5451C52.9866 56.9838 55.6499 59.2398 58.5639 61.5897C62.1359 64.4411 63.8905 66.0704 63.9532 66.5404C64.0472 67.2297 64.0159 67.2297 60.5065 67.2297C58.5639 67.2297 56.4019 67.3864 55.7125 67.5431C53.4252 68.0757 52.3912 70.3944 53.4879 72.5251C54.3652 74.1857 55.0859 74.405 60.1619 74.499L64.7992 74.593L65.5825 77.601L66.3972 80.609L62.6372 83.5544C60.5379 85.1524 57.1852 87.7843 55.1486 89.4137C53.1119 91.043 51.4199 92.3277 51.3572 92.265C50.6992 91.513 48.0672 86.3744 46.9392 83.7424C44.3072 77.3817 42.7719 71.4911 42.0512 64.8797C41.5186 59.8664 42.0199 51.7511 43.1166 47.3331C43.5552 45.5785 43.5239 45.6098 48.3179 44.8265C51.8586 44.2311 60.9452 44.4191 64.7992 45.1085ZM163.092 61.6211C164.846 61.8717 165.567 62.1224 165.661 62.4984C166.695 65.8511 166.883 75.2824 166.037 79.293C165.034 83.9617 162.904 89.3823 160.804 92.6723L159.833 94.1763L157.608 92.4217C156.355 91.4503 153.284 89.069 150.746 87.1577C148.208 85.2464 146.172 83.523 146.203 83.3664C146.266 83.1784 148.678 81.0477 151.592 78.6037C154.506 76.1597 157.138 73.841 157.452 73.4337C159.05 71.3657 157.138 68.1697 154.318 68.1697C153.034 68.1697 152.344 68.5144 150.339 70.2064C147.018 72.9951 143.164 76.003 142.882 76.003C142.788 76.003 142.85 75.4704 143.007 74.8124C143.226 73.935 143.853 65.2244 143.916 62.6551C143.916 62.2791 146.767 61.6524 150.245 61.2764C153.065 60.9317 159.864 61.1197 163.092 61.6211ZM107.13 69.8617C107.851 70.2691 109.543 71.4284 110.89 72.4624C116.812 76.9117 129.502 86.5624 131.226 87.9097C132.26 88.693 136.427 91.889 140.469 94.9597C149.556 101.884 151.091 103.075 151.091 103.263C151.091 103.357 150.339 103.764 149.399 104.172C144.072 106.459 138.62 111.096 135.33 116.078C132.855 119.838 132.197 121.53 132.385 123.661C132.573 125.416 133.262 126.544 134.86 127.64C135.738 128.267 136.239 128.361 137.712 128.267C140.187 128.079 141.378 127.17 143.477 123.88C147.707 117.206 153.284 114.292 160.992 114.637C165.974 114.856 169.452 116.298 173.588 119.776C175.061 121.029 178.069 125.008 178.069 125.729C178.069 126.418 179.291 127.045 181.046 127.233C186.78 127.954 192.42 131.839 194.989 136.946C195.992 138.92 196.869 142.774 196.869 145.093C196.869 147.412 195.992 150.921 194.77 153.396C193.078 156.874 188.879 160.979 185.276 162.733C179.792 165.397 187.845 165.146 104.122 165.146C20.6193 165.146 28.3273 165.365 23.126 162.827C17.6113 160.102 13.2873 154.963 11.846 149.417C11.2507 147.192 11.2507 142.179 11.8147 140.08C12.41 137.824 13.7573 135.129 15.1673 133.312C16.734 131.369 20.0553 128.894 22.3426 127.985C23.2826 127.609 24.0973 127.264 24.1286 127.233C24.1913 127.202 24.348 126.168 24.536 124.946C25.852 115.64 32.5573 109.154 42.1766 107.932C46.5632 107.368 51.5766 108.558 55.5559 111.128C58.2192 112.851 60.3499 114.919 61.9479 117.332C63.7965 120.183 64.5799 122.22 64.9559 125.102C65.3945 128.486 66.0525 130.053 67.3999 131.087C69.7498 132.873 73.8232 131.839 75.1078 129.113C75.5152 128.236 75.6718 127.233 75.6405 125.04C75.5778 120.026 74.0425 115.671 70.5958 110.626C68.7785 108.026 64.2979 103.576 62.0732 102.166C61.2272 101.634 60.5692 101.132 60.5692 101.038C60.5692 100.913 62.2925 99.5343 64.4232 97.9363C71.3792 92.641 91.0565 77.507 94.6285 74.6557C96.5711 73.1204 99.0778 71.2717 100.237 70.4884C102.054 69.2664 102.493 69.1097 104.06 69.1097C105.344 69.1097 106.19 69.3291 107.13 69.8617Z" fill="#16A34A"/>
<path d="M99.3284 93.7377C93.0931 95.2417 87.4218 100.568 85.2285 107.023C84.5705 108.997 84.5391 109.53 84.4451 124.883C84.3511 143.088 84.3825 143.401 86.7951 147.694C89.1138 151.83 93.2498 155.308 97.6364 156.843C103.997 159.068 111.486 157.783 116.781 153.49C120.478 150.482 123.204 145.845 123.925 141.302C124.082 140.174 124.176 132.967 124.113 124.382C123.988 109.718 123.988 109.31 123.267 107.18C122.045 103.42 119.82 100.161 116.875 97.6857C114.901 96.0563 110.859 94.051 108.572 93.581C106.316 93.111 101.553 93.205 99.3284 93.7377ZM107.381 105.174C109.606 105.989 111.736 108.276 112.426 110.564C112.708 111.504 112.896 113.384 112.896 115.232V118.303H104.248H95.5998L95.6938 114.606C95.8191 111.222 95.9131 110.72 96.7591 109.028C98.7331 105.174 103.151 103.576 107.381 105.174ZM107.224 130.46C107.82 130.774 108.728 131.526 109.198 132.121C110.89 134.22 110.64 138.074 108.666 139.923C107.757 140.769 107.694 141.584 108.352 143.965C108.603 144.905 108.728 145.751 108.666 145.876C108.572 146.033 102.242 146.033 99.8611 145.908C99.6104 145.876 99.6731 145.156 100.112 143.464L100.707 141.082L100.049 140.268C98.1691 137.949 97.6991 135.192 98.7958 133.03C99.4851 131.714 101.083 130.335 102.462 129.896C103.652 129.52 105.908 129.771 107.224 130.46Z" fill="#16A34A"/>
<path d="M230.091 137H218.273L252.455 43.9091H264.091L298.273 137H286.455L258.636 58.6364H257.909L230.091 137ZM234.455 100.636H282.091V110.636H234.455V100.636ZM355.318 108.455V67.1818H366.045V137H355.318V125.182H354.591C352.955 128.727 350.409 131.742 346.955 134.227C343.5 136.682 339.136 137.909 333.864 137.909C329.5 137.909 325.621 136.955 322.227 135.045C318.833 133.106 316.167 130.197 314.227 126.318C312.288 122.409 311.318 117.485 311.318 111.545V67.1818H322.045V110.818C322.045 115.909 323.47 119.97 326.318 123C329.197 126.03 332.864 127.545 337.318 127.545C339.985 127.545 342.697 126.864 345.455 125.5C348.242 124.136 350.576 122.045 352.455 119.227C354.364 116.409 355.318 112.818 355.318 108.455ZM416.057 67.1818V76.2727H379.875V67.1818H416.057ZM390.42 50.4546H401.148V117C401.148 120.03 401.587 122.303 402.466 123.818C403.375 125.303 404.527 126.303 405.92 126.818C407.345 127.303 408.845 127.545 410.42 127.545C411.602 127.545 412.572 127.485 413.33 127.364C414.087 127.212 414.693 127.091 415.148 127L417.33 136.636C416.602 136.909 415.587 137.182 414.284 137.455C412.981 137.758 411.33 137.909 409.33 137.909C406.299 137.909 403.33 137.258 400.42 135.955C397.542 134.652 395.148 132.667 393.239 130C391.36 127.333 390.42 123.97 390.42 119.909V50.4546ZM444.42 95V137H433.693V43.9091H444.42V78.0909H445.33C446.966 74.4849 449.42 71.6212 452.693 69.5C455.996 67.3485 460.39 66.2727 465.875 66.2727C470.633 66.2727 474.799 67.2273 478.375 69.1364C481.951 71.0152 484.723 73.9091 486.693 77.8182C488.693 81.697 489.693 86.6364 489.693 92.6364V137H478.966V93.3637C478.966 87.8182 477.527 83.5303 474.648 80.5C471.799 77.4394 467.845 75.9091 462.784 75.9091C459.269 75.9091 456.117 76.6515 453.33 78.1364C450.572 79.6212 448.39 81.7879 446.784 84.6364C445.208 87.4849 444.42 90.9394 444.42 95ZM510.773 137V43.9091H522.045V127H565.318V137H510.773ZM581.318 137V67.1818H592.045V137H581.318ZM586.773 55.5455C584.682 55.5455 582.879 54.8333 581.364 53.4091C579.879 51.9849 579.136 50.2727 579.136 48.2727C579.136 46.2727 579.879 44.5606 581.364 43.1364C582.879 41.7121 584.682 41 586.773 41C588.864 41 590.652 41.7121 592.136 43.1364C593.652 44.5606 594.409 46.2727 594.409 48.2727C594.409 50.2727 593.652 51.9849 592.136 53.4091C590.652 54.8333 588.864 55.5455 586.773 55.5455ZM622.42 95V137H611.693V67.1818H622.057V78.0909H622.966C624.602 74.5455 627.087 71.697 630.42 69.5455C633.754 67.3637 638.057 66.2727 643.33 66.2727C648.057 66.2727 652.193 67.2424 655.739 69.1818C659.284 71.0909 662.042 74 664.011 77.9091C665.981 81.7879 666.966 86.697 666.966 92.6364V137H656.239V93.3637C656.239 87.8788 654.814 83.6061 651.966 80.5455C649.117 77.4546 645.208 75.9091 640.239 75.9091C636.814 75.9091 633.754 76.6515 631.057 78.1364C628.39 79.6212 626.284 81.7879 624.739 84.6364C623.193 87.4849 622.42 90.9394 622.42 95ZM696.568 111.545L696.386 98.2727H698.568L729.114 67.1818H742.386L709.841 100.091H708.932L696.568 111.545ZM686.568 137V43.9091H697.295V137H686.568ZM730.932 137L703.659 102.455L711.295 95L744.568 137H730.932Z" fill="black"/>
</svg>
